Coordinates
version=1
nRows=21
nColumns=12
inDegrees=yes

Units are S.I. units (second, meters, Newtons, ...)
Angles are in degrees

endheader
time	SC_y	SC_z	SC_x	AC_y	AC_z	AC_x	GH_y	GH_z	GH_yy	EL_x	PS_y
       0.0              -35.12          24.69          63.82          41.04         -6.433         -4.188          96.13        -0.4479          125.3          43.97          64.23
   0.02169              -35.12          24.69          63.83          41.04         -6.431         -4.185          96.13        -0.4365          125.3          43.98          64.23
   0.04338              -35.13          24.69          63.83          41.04         -6.429         -4.182          96.13        -0.4245          125.3          43.98          64.24
   0.06507              -35.13          24.69          63.83          41.03         -6.426          -4.18          96.14        -0.4116          125.3          43.99          64.24
   0.08676              -35.13          24.69          63.84          41.03         -6.424         -4.177          96.14         -0.398          125.3          43.99          64.24
    0.1084              -35.14          24.68          63.84          41.03         -6.421         -4.173          96.15        -0.3834          125.3           44.0          64.25
    0.1301              -35.14          24.68          63.84          41.03         -6.418          -4.17          96.16        -0.3679          125.3           44.0          64.25
    0.1518              -35.14          24.68          63.85          41.03         -6.415         -4.166          96.16        -0.3513          125.3          44.01          64.26
    0.1735              -35.15          24.68          63.85          41.02         -6.411         -4.162          96.17        -0.3335          125.3          44.01          64.26
    0.1952              -35.15          24.67          63.85          41.02         -6.407         -4.158          96.18        -0.3144          125.3          44.02          64.27
    0.2169              -35.15          24.67          63.86          41.02         -6.404         -4.153          96.18        -0.2939          125.3          44.03          64.27
    0.2386              -35.16          24.67          63.86          41.02         -6.399         -4.148          96.19        -0.2718          125.3          44.04          64.28
    0.2603              -35.16          24.66          63.87          41.01         -6.395         -4.143           96.2         -0.248          125.3          44.04          64.29
     0.282              -35.17          24.66          63.88          41.01          -6.39         -4.137          96.21        -0.2224          125.3          44.05          64.29
    0.3037              -35.18          24.66          63.88          41.01         -6.384         -4.131          96.22        -0.1946          125.3          44.06           64.3
    0.3253              -35.18          24.65          63.89           41.0         -6.378         -4.125          96.23        -0.1644          125.3          44.07          64.31
     0.347              -35.19          24.65           63.9           41.0         -6.372         -4.117          96.24        -0.1316          125.3          44.09          64.32
    0.3687               -35.2          24.64           63.9          40.99         -6.365         -4.109          96.26       -0.09593          125.3           44.1          64.33
    0.3904              -35.21          24.64          63.91          40.99         -6.358         -4.101          96.27       -0.05695          125.3          44.11          64.34
    0.4121              -35.21          24.63          63.92          40.98         -6.349         -4.091          96.29       -0.01427          125.3          44.13          64.35
    0.4338              -35.22          24.62          63.93          40.98          -6.34         -4.081          96.31        0.03259          125.3          44.14          64.36
